<?xml version="1.0" encoding="utf-8"?>
<svg viewBox="5634.831 4318.982 23207.999 11604" xmlns="http://www.w3.org/2000/svg">
  <defs>
    <linearGradient gradientUnits="userSpaceOnUse" x1="29287.103" y1="4360.162" x2="29287.103" y2="11411.109" id="gradient-0" gradientTransform="matrix(-0.279312, -0.9602, 1.689934, -0.491584, 17538.287308, 42183.3267)">
      <stop offset="0" style="stop-color: rgb(110, 190, 171);"/>
      <stop offset="1" style="stop-color: rgb(17, 55, 84);"/>
    </linearGradient>
  </defs>
  <g fill="rgb(180,251,218)" transform="matrix(1, 0, 0, 1, 3.147579, 5.439253)">
    <g>
      <path d="M9740 14488 c-226 -98 -759 -328 -970 -419 -74 -31 -261 -112 -415 -179 -154 -67 -563 -243 -910 -392 -346 -149 -733 -316 -860 -370 -126 -55 -257 -111 -290 -125 -115 -48 -130 -54 -165 -71 l-35 -17 -7 -50 -6 -50 -1 -2490 -1 -2490 7 -67 6 -68 26 0 26 0 345 150 c190 82 414 180 498 217 l153 68 3 570 3 570 16 76 c22 104 41 158 96 274 l48 100 63 85 63 85 62 60 62 60 73 49 72 49 85 34 86 35 73 13 74 13 64 -14 64 -13 84 -41 c45 -22 102 -50 126 -63 l42 -22 5 -17 c3 -9 24 -45 47 -80 23 -34 58 -99 79 -143 l38 -80 11 -130 12 -131 -3 -342 -4 -342 33 0 33 0 49 25 c27 14 73 34 102 46 29 11 206 88 393 171 187 84 448 199 580 258 l240 107 3 2499 3 2499 -6 93 -7 92 -31 -1 -32 -1 -205 -90z m-456 -1119 l47 -21 49 -56 50 -56 39 -76 40 -76 10 -61 10 -62 -14 -98 -14 -98 -19 -55 c-42 -122 -107 -226 -201 -323 l-46 -48 -61 -40 -61 -40 -59 -20 -59 -21 -40 1 c-52 1 -97 14 -149 45 l-42 25 -41 44 -42 45 -24 49 c-13 26 -32 77 -42 113 l-19 65 1 80 0 80 17 70 18 70 44 92 44 91 59 74 59 73 45 37 c56 47 102 74 175 105 l57 24 62 -5 61 -5 46 -22z m-2444 -535 c14 -3 43 -18 65 -33 l39 -27 29 -40 28 -39 10 -67 10 -66 -4 -534 -3 -533 -15 -35 c-27 -65 -49 -99 -85 -134 l-36 -35 -44 -20 -44 -21 -35 0 -36 0 -38 20 c-21 10 -53 33 -70 50 l-31 31 -17 57 -18 57 0 560 0 560 18 53 19 52 39 50 39 50 33 17 c17 10 46 23 62 30 l30 11 15 -4 c8 -3 26 -8 40 -10z m1125 3 c22 -7 54 -20 70 -29 l30 -16 52 -54 51 -55 27 -52 26 -53 15 -81 14 -81 -11 -66 c-28 -171 -102 -319 -220 -439 l-53 -54 -50 -32 c-28 -18 -74 -41 -101 -50 l-50 -18 -45 0 -45 0 -48 22 -49 22 -45 42 -44 41 -24 40 c-13 23 -32 64 -42 91 l-17 50 0 110 0 110 16 57 c21 74 49 135 95 211 l37 62 60 64 61 64 50 32 c55 35 148 74 180 74 11 1 38 -5 60 -12z" style=""/>
      <path d="M7805 9685 l-50 -25 -45 -48 -45 -48 -33 -62 -33 -61 -14 -77 -15 -76 0 -469 0 -469 34 0 33 0 104 45 c57 25 172 77 254 116 l150 70 -3 477 -3 477 -10 38 -10 37 -31 36 c-17 19 -44 42 -59 50 l-28 14 -73 0 -73 -1 -50 -24z"/>
      <path d="M10020 8939 c-113 -50 -279 -124 -370 -164 -91 -40 -353 -156 -583 -259 -229 -102 -420 -186 -423 -186 -3 0 -78 -33 -167 -74 -89 -41 -254 -115 -367 -164 -113 -50 -365 -161 -560 -247 -387 -171 -701 -309 -795 -348 -33 -14 -104 -46 -157 -71 l-98 -45 0 -33 0 -33 138 -59 c75 -33 174 -77 220 -98 45 -21 155 -69 245 -107 89 -38 203 -88 252 -111 134 -63 193 -89 269 -121 l69 -29 54 0 54 0 217 96 c119 53 321 144 447 201 127 58 352 159 500 225 149 66 387 173 530 238 641 291 1585 715 1735 780 41 18 115 52 163 77 l88 44 -3 36 -3 36 -110 50 c-60 27 -220 96 -355 153 -135 58 -264 114 -287 125 -24 10 -45 19 -47 19 -2 0 -44 19 -93 41 -48 23 -128 59 -176 80 l-88 39 -47 0 -47 0 -205 -91z" style=""/>
      <path d="M12530 7784 c-146 -63 -290 -127 -320 -141 -30 -15 -149 -68 -265 -119 -115 -50 -322 -141 -460 -202 -230 -101 -401 -177 -785 -349 -294 -132 -442 -198 -725 -323 -159 -70 -351 -155 -425 -188 -230 -102 -454 -199 -477 -206 l-23 -7 0 -35 0 -34 53 -24 c28 -14 171 -77 317 -142 146 -64 335 -148 420 -187 85 -38 200 -90 254 -114 l99 -44 46 -5 46 -5 55 19 c30 11 217 92 415 180 198 88 538 239 755 335 393 174 641 284 1090 485 129 57 381 168 560 247 179 78 450 197 603 265 l277 124 0 37 0 37 -187 82 c-411 181 -527 232 -749 329 l-231 101 -39 0 -39 0 -265 -116z" style=""/>
    </g>
  </g>
  <g id="l4FEPMuvjh2WtbfjvrAY58T" fill="rgb(85,193,170)" style="transform: none">
    <g>
      <path id="pU3UDWRH7" d="M10468 12043 c-2 -1407 -1 -2576 2 -2598 l5 -40 80 -34 c44 -18 139 -59 210 -91 164 -73 582 -260 655 -293 30 -13 123 -55 205 -92 l150 -68 47 -5 46 -4 4 383 4 384 22 79 22 78 37 72 38 71 85 85 85 86 86 42 86 43 86 16 86 17 73 -17 73 -18 82 -33 82 -34 68 -45 68 -45 66 -69 66 -68 45 -70 c87 -134 135 -252 164 -395 l15 -75 6 -570 5 -570 7 -6 c3 -3 56 -27 116 -54 61 -26 143 -63 183 -82 39 -18 74 -33 77 -33 5 0 142 -61 250 -110 11 -5 102 -45 203 -90 l182 -80 34 0 34 0 7 462 7 463 -6 1765 c-3 971 -6 1940 -6 2153 l0 388 -17 5 c-24 8 -664 281 -1398 596 -324 140 -702 302 -840 360 -137 59 -356 152 -485 208 -129 56 -314 136 -410 177 -96 41 -260 112 -365 158 -104 46 -228 99 -275 119 l-86 36 -32 0 -32 0 -2 -2557z m1462 1463 c47 -18 186 -77 310 -130 124 -54 362 -156 530 -228 168 -71 319 -136 335 -144 38 -17 381 -160 540 -225 66 -27 136 -60 156 -74 l37 -24 25 -33 c13 -18 29 -48 36 -67 l11 -34 -11 -41 -11 -41 -42 -41 -41 -42 -39 -10 -38 -11 -47 16 c-25 8 -102 39 -171 68 -126 54 -316 134 -725 305 -263 110 -558 236 -600 255 -16 7 -108 47 -203 88 -96 42 -189 86 -208 99 l-34 23 -27 40 -27 40 -1 62 0 61 30 43 30 42 35 18 c45 25 50 24 150 -15z m-84 -740 c22 -7 84 -34 139 -59 111 -50 377 -163 543 -231 59 -24 150 -63 202 -86 146 -65 611 -260 881 -370 l167 -67 46 -32 46 -32 26 -45 27 -45 0 -37 0 -37 -21 -42 -22 -41 -29 -21 c-16 -12 -44 -27 -62 -35 l-32 -14 -36 10 c-41 11 -140 52 -361 149 -85 37 -200 85 -255 107 -55 22 -147 61 -205 87 -58 25 -202 87 -320 137 -439 185 -712 303 -768 332 l-47 24 -32 34 -32 33 -15 37 -16 37 0 41 0 41 19 37 c20 38 51 71 86 90 26 14 25 15 71 -2z m860 -1139 c82 -36 185 -80 229 -97 44 -17 150 -62 235 -100 85 -37 211 -91 280 -120 190 -79 290 -126 335 -158 l42 -29 23 -47 22 -47 -6 -31 c-3 -18 -18 -51 -32 -75 l-25 -43 -41 -26 -41 -26 -41 4 -41 5 -155 70 c-85 39 -347 152 -581 252 l-425 182 -36 29 -36 29 -22 48 -22 47 4 52 4 51 24 32 23 33 31 20 31 19 36 -4 37 -5 148 -65z" style=""/>
      <path id="putvtFHnP" d="M12425 9661 l-50 -29 -35 -58 -35 -58 -3 -448 -4 -449 11 -13 11 -13 143 -66 c78 -35 183 -84 234 -106 l92 -42 48 3 48 3 3 435 3 435 -11 93 -10 94 -22 41 c-32 63 -65 103 -118 142 l-48 35 -49 15 -48 15 -55 0 -55 0 -50 -29z" style=""/>
    </g>
  </g>
  <g id="lY26rNtZ66tGas3Hqvv6jS" fill="rgb(0,55,85)" style="transform: none">
    <g>
      <path id="p13hqN18OQ" d="M 10110 15131 C 10066 15116 9915 15053 9775 14992 C 9635 14932 9484 14867 9440 14850 C 9370 14822 9099 14706 8615 14495 C 8471 14432 7535 14030 7275 13919 C 7201 13888 7066 13829 6975 13790 C 6707 13673 6280 13492 6135 13433 C 6061 13403 5954 13356 5899 13330 L 5798 13281 L 5755 13233 L 5712 13185 L 5683 13124 L 5654 13063 L 5645 12979 L 5635 12895 L 5635 10200 L 5636 7505 L 5644 7438 L 5653 7371 L 5679 7314 L 5706 7256 L 5740 7214 L 5775 7172 L 5820 7142 C 5845 7126 5895 7100 5933 7084 C 5970 7069 6106 7009 6235 6952 C 6364 6894 6504 6833 6545 6815 C 6610 6787 7085 6573 7455 6405 C 7619 6331 8307 6023 8520 5928 C 8711 5843 8856 5779 9155 5645 C 9257 5600 9467 5506 9622 5437 C 9777 5367 9953 5288 10012 5261 L 10121 5212 L 10185 5195 L 10250 5178 L 10300 5183 L 10351 5188 L 10425 5213 C 10466 5227 10570 5271 10655 5310 C 10821 5388 11325 5614 11490 5685 C 11545 5709 11712 5783 11860 5850 C 12131 5973 13177 6439 14114 6856 C 14391 6980 14637 7092 14661 7106 L 14703 7131 L 14744 7175 L 14784 7218 L 14814 7277 L 14843 7336 L 14854 7395 L 14865 7454 L 14865 10220 L 14865 12986 L 14854 13046 L 14843 13105 L 14809 13171 L 14774 13236 L 14727 13272 C 14652 13329 14613 13346 14000 13600 C 13923 13632 13840 13667 13815 13678 C 13790 13689 13622 13761 13440 13838 C 13259 13916 13074 13995 13030 14015 C 12986 14035 12896 14074 12830 14100 C 12718 14145 12535 14223 12300 14325 C 12245 14349 12151 14389 12090 14414 C 12030 14439 11933 14480 11875 14505 C 11817 14530 11722 14571 11663 14595 C 11604 14620 11512 14659 11458 14684 C 11331 14741 10958 14900 10951 14900 C 10948 14900 10870 14934 10778 14976 C 10583 15064 10444 15121 10363 15144 L 10307 15160 L 10248 15160 L 10190 15160 L 10110 15131 Z M 10670 14502 C 10747 14469 10866 14418 10935 14387 C 11004 14357 11139 14298 11235 14257 C 11331 14216 11516 14136 11645 14080 C 11774 14024 11997 13929 12140 13868 C 12404 13756 13236 13398 13910 13108 C 14114 13020 14303 12940 14330 12930 L 14380 12912 L 14385 12093 C 14388 11643 14390 10482 14390 9513 L 14390 7752 L 14384 7745 L 14377 7739 L 14194 7820 C 14093 7864 14001 7905 13990 7910 C 13882 7959 13745 8020 13740 8020 C 13737 8020 13702 8035 13663 8053 C 13623 8072 13541 8109 13480 8135 C 13420 8162 13367 8186 13364 8189 L 13357 8195 L 13352 8765 L 13346 9335 L 13331 9410 C 13302 9555 13253 9672 13167 9805 L 13122 9875 L 13056 9943 L 12990 10012 L 12925 10055 C 12845 10108 12765 10144 12656 10176 L 12573 10200 L 12515 10200 L 12456 10200 L 12383 10185 L 12310 10169 L 12225 10128 L 12140 10086 L 12055 10000 L 11970 9915 L 11932 9844 L 11895 9772 L 11873 9694 L 11851 9615 L 11847 9232 L 11843 8849 L 11822 8856 C 11803 8861 11669 8920 11455 9017 C 11382 9050 10964 9237 10800 9310 C 10729 9342 10634 9383 10590 9401 L 10510 9435 L 10505 9475 C 10502 9497 10501 10653 10503 12044 L 10505 14572 L 10518 14567 C 10524 14564 10593 14535 10670 14502 Z M 9995 11986 L 9995 9424 L 9538 9220 C 9004 8983 8657 8830 8633 8823 L 8617 8818 L 8612 9267 L 8607 9715 L 8597 9756 L 8586 9796 L 8524 9906 C 8490 9966 8451 10029 8438 10047 L 8413 10079 L 8347 10121 C 8311 10144 8249 10176 8211 10193 L 8140 10223 L 8025 10223 L 7910 10224 L 7851 10206 C 7765 10179 7690 10144 7612 10094 L 7542 10049 L 7461 9967 L 7380 9885 L 7327 9808 L 7274 9730 L 7230 9635 C 7177 9521 7159 9464 7140 9345 L 7125 9255 L 7125 8709 L 7125 8163 L 6992 8105 C 6920 8073 6750 7999 6615 7940 C 6480 7881 6315 7809 6247 7780 L 6125 7727 L 6118 7734 L 6111 7741 L 6110 12855 L 6122 12876 L 6134 12897 L 6167 12910 C 6185 12917 6265 12951 6345 12985 C 6425 13020 6535 13067 6590 13090 C 6645 13113 6708 13140 6730 13150 C 6809 13185 7148 13331 7670 13555 C 8212 13788 8383 13862 8795 14040 C 9110 14176 9634 14402 9770 14460 C 9831 14486 9903 14518 9930 14531 C 9958 14545 9983 14554 9988 14552 L 9995 14549 L 9995 11986 Z M 8034 9649 L 8077 9619 L 8098 9572 L 8120 9525 L 8123 9067 L 8126 8609 L 7998 8549 C 7854 8480 7713 8417 7643 8389 L 7596 8371 L 7596.518 8419.342 L 7601 8838 L 7606 9305 L 7617 9355 L 7627 9405 L 7662 9472 L 7697 9540 L 7745 9588 L 7793 9637 L 7836 9658 L 7880 9679 L 7936 9680 L 7992 9680 L 8034 9649 Z M 12608 9645 L 12657 9630 L 12705 9595 C 12758 9556 12791 9516 12823 9453 L 12845 9412 L 12855 9318 L 12866 9225 L 12863 8820 L 12860 8415 L 12843 8412 L 12825 8409 L 12733 8450 C 12682 8473 12576 8522 12498 8557 L 12355 8623 L 12344 8636 L 12333 8649 L 12337 9068 L 12340 9486 L 12375 9544 L 12410 9602 L 12460 9631 L 12510 9660 L 12535 9660 C 12549 9660 12582 9653 12608 9645 Z M 10463 8929 C 10549 8890 10629 8854 10640 8850 C 10651 8846 10685 8831 10715 8817 C 10745 8804 10841 8762 10928 8726 C 11135.985 8637.871 11458 8491 11458 8491 L 11466 8483 L 11443 8468 C 11418 8451 11350 8421 10650 8107 C 10386 7989 10071 7847 9950 7792 C 9395 7541 9087 7402 8935 7335 C 8844 7295 8646 7206 8495 7137 C 8072 6945 7793 6822 7764 6815 L 7739 6809 L 7614 6863 C 7546 6893 7445 6939 7390 6965 C 7335 6990 7218 7042 7130 7080 C 6914 7172 6544 7337 6537 7345 L 6531 7351 L 6545 7360 C 6565 7373 6733 7448 7015 7570 C 7250 7672 7637 7842 8240 8110 C 8416 8188 8650 8292 8760 8340 C 8994 8442 9378 8612 9520 8677 C 9575 8702 9674 8746 9740 8775 C 9949 8866 10159 8959 10200 8979 L 10273 8999 L 10306 9000 L 10463 8929 Z M 13009 7804 C 13092 7768 13210 7716 13270 7690 C 13331 7664 13412 7628 13450 7610 C 13489 7592 13556 7563 13600 7545 C 13645 7526 13715 7495 13758 7476 C 13800 7456 13837 7440 13840 7440 C 13852 7440 14025 7356 14025 7350 C 14025 7346 13941 7305 13838 7260 C 13734 7214 13583 7147 13500 7110 C 13418 7073 13285 7014 13205 6980 C 13125 6945 12898 6845 12700 6757 C 12502 6669 12234 6550 12105 6493 C 11976 6435 11677 6303 11440 6198 C 11204 6094 10904 5961 10775 5903 C 10646 5845 10483 5774 10414 5744 L 10288 5690 L 10267 5690 C 10237 5690 10172 5717 9925 5830 C 9807 5884 9595 5978 9455 6040 C 9334.43 6093.395 9213.119 6146.79 9161.967 6168.887 C 9153.724 6172.448 9147.302 6175.196 9143 6177 L 9121.25 6186.75 L 9105.391 6193.859 L 9085 6203 L 9085 6212 C 9085 6216 9787 6526 9880 6567 C 10049 6642 10357 6779 11060 7092 C 11571 7320 11748 7399 11980 7500 C 12090 7548 12209 7601 12245 7618 C 12281 7634 12378 7677 12460 7713 C 12543 7749 12655 7799 12710 7823 L 12810 7868 L 12834 7869 L 12857 7870 L 13009 7804 Z" style=""/>
      <path id="p8fKYEeZk" d="M11761 13558 l-43 -21 -28 -39 -28 -38 -12 -50 -12 -50 13 -52 12 -53 23 -35 24 -35 34 -23 c19 -13 112 -57 208 -99 95 -41 187 -81 203 -88 42 -19 337 -145 600 -255 409 -171 599 -251 725 -305 210 -89 237 -95 315 -74 l40 11 41 42 42 41 11 40 c21 77 10 141 -36 203 l-25 33 -37 24 c-20 14 -90 47 -156 74 -159 65 -502 208 -540 225 -16 8 -169 74 -340 146 -170 73 -413 177 -540 232 -248 107 -406 168 -433 168 -9 -1 -37 -11 -61 -22z"/>
      <path id="px5z75AJS" d="M11745 12798 c-36 -19 -67 -52 -88 -93 l-20 -40 -1 -60 0 -60 13 -39 13 -39 36 -39 36 -40 47 -24 c58 -29 335 -149 769 -332 118 -50 262 -112 320 -137 58 -26 150 -65 205 -87 55 -22 170 -70 255 -107 245 -108 322 -139 372 -152 l48 -11 33 6 33 6 47 30 46 29 23 43 22 43 1 65 0 65 -28 47 -27 47 -46 32 -46 32 -167 67 c-270 110 -735 305 -881 370 -52 23 -143 62 -202 86 -166 68 -432 181 -543 231 -55 25 -117 52 -139 59 l-39 14 -36 0 -36 -1 -20 -11z"/>
      <path id="p1CWFRmkIP" d="M12444 11721 l-41 -19 -27 -34 -26 -35 -9 -49 -9 -49 7 -45 c4 -25 16 -62 25 -83 l19 -38 35 -29 36 -29 425 -182 c234 -100 496 -214 581 -253 l155 -70 75 -3 75 -3 40 27 39 28 28 54 28 53 0 51 0 51 -22 44 -21 45 -42 29 c-45 32 -145 79 -335 158 -69 29 -195 83 -280 120 -85 38 -200 86 -255 108 -55 22 -147 62 -205 87 -124 56 -205 85 -234 85 -12 0 -40 -9 -62 -19z" style=""/>
      <path id="pVXsMkjGc" d="M9090 13423 c-201 -43 -410 -263 -490 -518 l-22 -70 -5 -120 -6 -120 17 -65 c9 -36 30 -93 46 -127 l28 -62 47 -46 46 -47 52 -24 53 -23 71 -7 71 -7 69 21 69 21 59 39 60 39 76 80 76 81 40 79 41 78 27 85 28 85 0 150 0 150 -32 64 c-40 78 -78 134 -123 180 l-33 34 -52 24 -52 24 -68 4 c-37 2 -79 1 -93 -2z" style=""/>
      <path id="pwt53yO2z" d="M 7847 12869 C 7826 12864 7784 12848 7754 12834 L 7700 12808 L 7650 12769 L 7600 12729 L 7554 12672 C 7529 12641 7489 12579 7465 12535 L 7421 12455 L 7399 12375 L 7377 12295 L 7376 12175 L 7375 12055 L 7394 12000 C 7435 11878 7488 11810 7575 11767 L 7625 11742 L 7680 11732 L 7734 11722 L 7788.75 11735.5 L 7807 11740 L 7879 11759 L 7937 11796 C 8008 11840 8049 11878 8105 11951 L 8149 12007 L 8188 12086 L 8228 12165 L 8245 12225 L 8261 12285 L 8266 12380 L 8272 12475 L 8256 12548 L 8241 12621 L 8211 12673 L 8181 12725 L 8137 12772 L 8092 12819 L 8058 12836 C 8019 12856 7934 12880 7905 12879 C 7894 12878 7868 12874 7847 12869 Z" style=""/>
      <path id="p6on4xMJt" d="M6695 12847 l-50 -24 -37 -41 c-43 -47 -60 -80 -77 -142 l-12 -45 3 -595 4 -595 12 -37 13 -37 26 -31 26 -31 48 -24 48 -25 49 0 49 0 34 12 c19 6 51 22 72 35 l38 24 32 45 32 45 17 47 16 47 1 594 1 594 -11 38 -12 38 -30 36 -30 36 -39 25 -40 25 -66 5 -67 5 -50 -24z" style=""/>
    </g>
  </g>
  <path d="M 16701.704 8405.099 L 18156.782 8405.099 L 18718.306 10582.833 L 19277.388 8405.099 L 20727.583 8405.099 L 20727.583 11984.2 L 19824.263 11984.2 L 19824.263 9254.708 L 19123.579 11984.2 L 18305.708 11984.2 L 17607.466 9254.708 L 17607.466 11984.2 L 16701.704 11984.2 Z M 21440.463 8405.099 L 22473.178 8405.099 L 23820.834 10385.079 L 23820.834 8405.099 L 24863.314 8405.099 L 24863.314 11984.2 L 23820.834 11984.2 L 22480.502 10018.868 L 22480.502 11984.2 L 21440.463 11984.2 Z M 25346.713 8405.099 L 28708.529 8405.099 L 28708.529 9288.888 L 27580.6 9288.888 L 27580.6 11984.2 L 26474.643 11984.2 L 26474.643 9288.888 L 25346.713 9288.888 Z" style="fill: url(#gradient-0); white-space: pre;"/>
</svg>